<?xml version="1.0" encoding="UTF-8"?>
<svg width="227px" height="47px" viewBox="0 0 227 47" version="1.1" xmlns="http://www.w3.org/2000/svg" xmlns:xlink="http://www.w3.org/1999/xlink">
    <title>Ghost Logo Light</title>
    <g id="Ghost-Logo-Light" stroke="none" stroke-width="1" fill="none" fill-rule="evenodd">
        <g id="logo-light" transform="translate(9.000000, 6.000000)" fill-rule="nonzero">
            <path d="M41.82,29 L41.82,15.112 L44.984,15.112 L45.264,17.464 C45.6933,16.6427 46.3093,15.9893 47.112,15.504 C47.9333,15.0187 48.8947,14.776 49.996,14.776 C51.7133,14.776 53.048,15.3173 54,16.4 C54.952,17.4827 55.428,19.0693 55.428,21.16 L55.428,29 L51.844,29 L51.844,21.496 C51.844,20.3013 51.6013,19.3867 51.116,18.752 C50.6307,18.1173 49.8747,17.8 48.848,17.8 C47.84,17.8 47.0093,18.1547 46.356,18.864 C45.7213,19.5733 45.404,20.5627 45.404,21.832 L45.404,29 L41.82,29 Z M72.2392,15.112 L72.2392,29 L69.0752,29 L68.7952,26.648 C68.3658,27.4693 67.7405,28.1227 66.9192,28.608 C66.1165,29.0933 65.1645,29.336 64.0632,29.336 C62.3458,29.336 61.0112,28.7947 60.0592,27.712 C59.1072,26.6293 58.6312,25.0427 58.6312,22.952 L58.6312,15.112 L62.2152,15.112 L62.2152,22.616 C62.2152,23.8107 62.4578,24.7253 62.9432,25.36 C63.4285,25.9947 64.1845,26.312 65.2112,26.312 C66.2192,26.312 67.0405,25.9573 67.6752,25.248 C68.3285,24.5387 68.6552,23.5493 68.6552,22.28 L68.6552,15.112 L72.2392,15.112 Z M74.5743,29 L79.6143,22.056 L74.5743,15.112 L78.4103,15.112 L81.9383,20.04 L85.4383,15.112 L89.3023,15.112 L84.2343,22.056 L89.3023,29 L85.4383,29 L81.9383,24.072 L78.4103,29 L74.5743,29 Z M97.7736,29 C96.3176,29 95.151,28.6453 94.2736,27.936 C93.3963,27.2267 92.9576,25.9667 92.9576,24.156 L92.9576,18.108 L90.5776,18.108 L90.5776,15.112 L92.9576,15.112 L93.3776,11.388 L96.5416,11.388 L96.5416,15.112 L100.2936,15.112 L100.2936,18.108 L96.5416,18.108 L96.5416,24.184 C96.5416,24.856 96.6816,25.3227 96.9616,25.584 C97.2603,25.8267 97.7643,25.948 98.4736,25.948 L100.2096,25.948 L100.2096,29 L97.7736,29 Z M102.195,32.108 L109.195,7.244 L112.695,7.244 L105.667,32.108 L102.195,32.108 Z" id="Shape" fill="#003E27"></path>
            <path d="M124.49,34.85 C126.27,34.85 127.69,34.61 128.75,34.13 C129.81,33.65 130.62,33.065 131.18,32.375 C131.74,31.685 132.105,30.94 132.275,30.14 C132.445,29.34 132.53,28.63 132.53,28.01 L132.53,13.49 L128.48,13.49 L128.48,15.56 L128.42,15.56 C127.9,14.66 127.255,14.02 126.485,13.64 C125.715,13.26 124.82,13.07 123.8,13.07 C122.72,13.07 121.765,13.28 120.935,13.7 C120.105,14.12 119.41,14.685 118.85,15.395 C118.29,16.105 117.865,16.925 117.575,17.855 C117.285,18.785 117.14,19.75 117.14,20.75 C117.14,21.81 117.265,22.815 117.515,23.765 C117.765,24.715 118.16,25.545 118.7,26.255 C119.24,26.965 119.93,27.525 120.77,27.935 C121.61,28.345 122.61,28.55 123.77,28.55 C124.71,28.55 125.605,28.355 126.455,27.965 C127.305,27.575 127.96,26.97 128.42,26.15 L128.48,26.15 L128.48,28.19 C128.5,29.29 128.235,30.2 127.685,30.92 C127.135,31.64 126.26,32 125.06,32 C124.3,32 123.63,31.845 123.05,31.535 C122.47,31.225 122.08,30.67 121.88,29.87 L117.65,29.87 C117.71,30.75 117.955,31.505 118.385,32.135 C118.815,32.765 119.355,33.28 120.005,33.68 C120.655,34.08 121.375,34.375 122.165,34.565 C122.955,34.755 123.73,34.85 124.49,34.85 Z M124.85,25.34 C124.19,25.34 123.64,25.2 123.2,24.92 C122.76,24.64 122.405,24.28 122.135,23.84 C121.865,23.4 121.675,22.905 121.565,22.355 C121.455,21.805 121.4,21.25 121.4,20.69 C121.4,20.11 121.465,19.555 121.595,19.025 C121.725,18.495 121.935,18.025 122.225,17.615 C122.515,17.205 122.875,16.88 123.305,16.64 C123.735,16.4 124.25,16.28 124.85,16.28 C125.55,16.28 126.13,16.41 126.59,16.67 C127.05,16.93 127.42,17.28 127.7,17.72 C127.98,18.16 128.18,18.665 128.3,19.235 C128.42,19.805 128.48,20.41 128.48,21.05 C128.48,21.61 128.405,22.145 128.255,22.655 C128.105,23.165 127.88,23.62 127.58,24.02 C127.28,24.42 126.9,24.74 126.44,24.98 C125.98,25.22 125.45,25.34 124.85,25.34 Z M141.043333,29 L141.043333,20.87 C141.043333,19.29 141.303333,18.155 141.823333,17.465 C142.343333,16.775 143.183333,16.43 144.343333,16.43 C145.363333,16.43 146.073333,16.745 146.473333,17.375 C146.873333,18.005 147.073333,18.96 147.073333,20.24 L147.073333,29 L151.333333,29 L151.333333,19.46 C151.333333,18.5 151.248333,17.625 151.078333,16.835 C150.908333,16.045 150.613333,15.375 150.193333,14.825 C149.773333,14.275 149.198333,13.845 148.468333,13.535 C147.738333,13.225 146.803333,13.07 145.663333,13.07 C144.863333,13.07 144.043333,13.275 143.203333,13.685 C142.363333,14.095 141.673333,14.75 141.133333,15.65 L141.043333,15.65 L141.043333,7.58 L136.783333,7.58 L136.783333,29 L141.043333,29 Z M162.936667,29.39 C164.156667,29.39 165.261667,29.2 166.251667,28.82 C167.241667,28.44 168.086667,27.895 168.786667,27.185 C169.486667,26.475 170.026667,25.62 170.406667,24.62 C170.786667,23.62 170.976667,22.5 170.976667,21.26 C170.976667,20.02 170.786667,18.895 170.406667,17.885 C170.026667,16.875 169.486667,16.015 168.786667,15.305 C168.086667,14.595 167.241667,14.045 166.251667,13.655 C165.261667,13.265 164.156667,13.07 162.936667,13.07 C161.716667,13.07 160.616667,13.265 159.636667,13.655 C158.656667,14.045 157.816667,14.595 157.116667,15.305 C156.416667,16.015 155.876667,16.875 155.496667,17.885 C155.116667,18.895 154.926667,20.02 154.926667,21.26 C154.926667,22.5 155.116667,23.62 155.496667,24.62 C155.876667,25.62 156.416667,26.475 157.116667,27.185 C157.816667,27.895 158.656667,28.44 159.636667,28.82 C160.616667,29.2 161.716667,29.39 162.936667,29.39 Z M162.936667,26.21 C162.216667,26.21 161.616667,26.07 161.136667,25.79 C160.656667,25.51 160.271667,25.135 159.981667,24.665 C159.691667,24.195 159.486667,23.665 159.366667,23.075 C159.246667,22.485 159.186667,21.88 159.186667,21.26 C159.186667,20.64 159.246667,20.03 159.366667,19.43 C159.486667,18.83 159.691667,18.3 159.981667,17.84 C160.271667,17.38 160.656667,17.005 161.136667,16.715 C161.616667,16.425 162.216667,16.28 162.936667,16.28 C163.656667,16.28 164.261667,16.425 164.751667,16.715 C165.241667,17.005 165.631667,17.38 165.921667,17.84 C166.211667,18.3 166.416667,18.83 166.536667,19.43 C166.656667,20.03 166.716667,20.64 166.716667,21.26 C166.716667,21.88 166.656667,22.485 166.536667,23.075 C166.416667,23.665 166.211667,24.195 165.921667,24.665 C165.631667,25.135 165.241667,25.51 164.751667,25.79 C164.261667,26.07 163.656667,26.21 162.936667,26.21 Z M181.11,29.39 C181.99,29.39 182.855,29.305 183.705,29.135 C184.555,28.965 185.31,28.67 185.97,28.25 C186.63,27.83 187.165,27.275 187.575,26.585 C187.985,25.895 188.19,25.04 188.19,24.02 C188.19,23.3 188.05,22.695 187.77,22.205 C187.49,21.715 187.12,21.305 186.66,20.975 C186.2,20.645 185.675,20.38 185.085,20.18 C184.495,19.98 183.89,19.81 183.27,19.67 C182.67,19.53 182.08,19.4 181.5,19.28 C180.92,19.16 180.405,19.025 179.955,18.875 C179.505,18.725 179.14,18.53 178.86,18.29 C178.58,18.05 178.44,17.74 178.44,17.36 C178.44,17.04 178.52,16.785 178.68,16.595 C178.84,16.405 179.035,16.26 179.265,16.16 C179.495,16.06 179.75,15.995 180.03,15.965 C180.31,15.935 180.57,15.92 180.81,15.92 C181.57,15.92 182.23,16.065 182.79,16.355 C183.35,16.645 183.66,17.2 183.72,18.02 L187.77,18.02 C187.69,17.06 187.445,16.265 187.035,15.635 C186.625,15.005 186.11,14.5 185.49,14.12 C184.87,13.74 184.165,13.47 183.375,13.31 C182.585,13.15 181.77,13.07 180.93,13.07 C180.09,13.07 179.27,13.145 178.47,13.295 C177.67,13.445 176.95,13.705 176.31,14.075 C175.67,14.445 175.155,14.95 174.765,15.59 C174.375,16.23 174.18,17.05 174.18,18.05 C174.18,18.73 174.32,19.305 174.6,19.775 C174.88,20.245 175.25,20.635 175.71,20.945 C176.17,21.255 176.695,21.505 177.285,21.695 C177.875,21.885 178.48,22.05 179.1,22.19 C180.62,22.51 181.805,22.83 182.655,23.15 C183.505,23.47 183.93,23.95 183.93,24.59 C183.93,24.97 183.84,25.285 183.66,25.535 C183.48,25.785 183.255,25.985 182.985,26.135 C182.715,26.285 182.415,26.395 182.085,26.465 C181.755,26.535 181.44,26.57 181.14,26.57 C180.72,26.57 180.315,26.52 179.925,26.42 C179.535,26.32 179.19,26.165 178.89,25.955 C178.59,25.745 178.345,25.475 178.155,25.145 C177.965,24.815 177.87,24.42 177.87,23.96 L173.82,23.96 C173.86,25 174.095,25.865 174.525,26.555 C174.955,27.245 175.505,27.8 176.175,28.22 C176.845,28.64 177.61,28.94 178.47,29.12 C179.33,29.3 180.21,29.39 181.11,29.39 Z M197.543333,29.15 C197.963333,29.15 198.393333,29.14 198.833333,29.12 C199.273333,29.1 199.673333,29.06 200.033333,29 L200.033333,25.7 C199.833333,25.74 199.623333,25.77 199.403333,25.79 C199.183333,25.81 198.953333,25.82 198.713333,25.82 C197.993333,25.82 197.513333,25.7 197.273333,25.46 C197.033333,25.22 196.913333,24.74 196.913333,24.02 L196.913333,16.34 L200.033333,16.34 L200.033333,13.49 L196.913333,13.49 L196.913333,8.84 L192.653333,8.84 L192.653333,13.49 L190.073333,13.49 L190.073333,16.34 L192.653333,16.34 L192.653333,25.49 C192.653333,26.27 192.783333,26.9 193.043333,27.38 C193.303333,27.86 193.658333,28.23 194.108333,28.49 C194.558333,28.75 195.078333,28.925 195.668333,29.015 C196.258333,29.105 196.883333,29.15 197.543333,29.15 Z" id="ghost" fill="#15171A"></path>
            <g id="Group" opacity="0.6" transform="translate(0.000000, 2.000000)" fill="#2E3134">
                <rect id="Rectangle" x="0" y="26" width="13" height="6" rx="3"></rect>
                <rect id="Rectangle" x="20" y="26" width="13" height="6" rx="3"></rect>
                <rect id="Rectangle" x="0" y="13" width="32" height="6" rx="3"></rect>
                <rect id="Rectangle" x="0" y="0" width="20" height="6" rx="3"></rect>
                <rect id="Rectangle" x="26" y="0" width="6" height="6" rx="3"></rect>
            </g>
        </g>
    </g>
</svg>